<svg viewBox="0 0 61.06 54.76">
    <g className='stroke-slate-700 stroke-'>
        <path d="M54.53,54.13H6.53c-3.3,0-6-2.7-6-6H.53c0-3.3,2.7-6,6-6H54.53c3.3,0,6,2.7,6,6h0c0,3.3-2.7,6-6,6Z" />
        <path d="M49.33,51.13L25.33,9.53c-1.7-2.9-.7-6.5,2.2-8.2h0c2.9-1.7,6.5-.7,8.2,2.2l24,41.6c1.7,2.9,.7,6.5-2.2,8.2h0c-2.9,1.7-6.5,.7-8.2-2.2Z" />
        <path d="M35.73,9.63L11.73,51.23c-1.7,2.9-5.3,3.9-8.2,2.2h0c-2.9-1.7-3.9-5.3-2.2-8.2L25.33,3.63c1.7-2.9,5.3-3.9,8.2-2.2h0c2.9,1.6,3.9,5.3,2.2,8.2Z" />
    </g>
</svg>
